<svg width="120" height="56" viewBox="0 0 120 56" fill="none" xmlns="http://www.w3.org/2000/svg">
<rect width="120" height="56" rx="5.08333" fill="#1C00A1"/>
<g clip-path="url(#clip0)">
<path d="M26.8574 14.4907H39.0388C40.3119 14.4907 41.4792 14.6226 42.5403 14.8867C43.6011 15.1506 44.5277 15.5722 45.3201 16.1506C46.0557 16.6786 46.6358 17.3456 47.0604 18.1504C47.485 18.9554 47.6973 19.9109 47.6973 21.0176C47.6973 22.6021 47.2091 23.9354 46.2328 25.0166C45.2565 26.0983 43.8773 26.8652 42.0944 27.318V27.431C45.2352 28.2114 46.791 30.0849 46.7636 33.0526C46.7636 35.241 45.8299 37.1275 43.9621 38.7117C42.9152 39.5927 41.6769 40.2718 40.2483 40.7493C38.819 41.2271 37.0716 41.466 35.0065 41.466H21L26.8574 14.4907ZM28.0457 36.9764H35.0491C36.7468 36.9764 38.0976 36.6434 39.1023 35.9766C40.1063 35.3105 40.609 34.2599 40.609 32.8263C40.609 31.6697 40.2125 30.8082 39.4208 30.2421C38.628 29.676 37.5956 29.3932 36.3222 29.3932H29.7008L28.0457 36.9764ZM36.8739 25.394C37.4962 25.394 38.1051 25.3438 38.699 25.2431C39.2933 25.1428 39.8166 24.9541 40.2696 24.677C40.7216 24.4006 41.0897 24.0231 41.373 23.5454C41.6556 23.0679 41.7973 22.4642 41.7973 21.7343C41.7973 20.8797 41.5217 20.1937 40.9697 19.6784C40.418 19.163 39.5056 18.9046 38.2322 18.9046H31.9931L30.5922 25.394H36.8739Z" fill="white"/>
<path d="M60.8122 42.0694C59.0578 42.0694 57.4094 41.8933 55.8679 41.5414C54.325 41.1892 52.9951 40.649 51.8779 39.9191C50.7596 39.1898 49.8969 38.2658 49.2887 37.1459C48.6799 36.0274 48.4186 34.6881 48.5035 33.128H54.4028C54.346 33.9835 54.4734 34.7005 54.7848 35.2783C55.0958 35.8573 55.5491 36.3288 56.1431 36.6933C56.737 37.0581 57.4442 37.3159 58.2654 37.4671C59.0858 37.6176 59.9908 37.6933 60.9816 37.6933C61.7456 37.6933 62.4741 37.6308 63.1674 37.5046C63.8608 37.379 64.476 37.1714 65.0139 36.882C65.5514 36.593 65.9827 36.2285 66.3086 35.7879C66.6335 35.3483 66.7964 34.8134 66.7964 34.1845C66.7964 33.707 66.697 33.2921 66.4993 32.9393C66.3008 32.5874 65.9476 32.2479 65.4385 31.9209C64.9287 31.5943 64.2499 31.2671 63.401 30.9398C62.5522 30.6132 61.4907 30.2361 60.2179 29.8079C58.8597 29.3806 57.6498 28.9407 56.5886 28.4875C55.5278 28.035 54.6289 27.5197 53.8937 26.9406C53.1574 26.3625 52.5989 25.6897 52.2169 24.9225C51.8349 24.1554 51.6439 23.2437 51.6439 22.1872C51.6439 20.9041 51.9053 19.7535 52.4296 18.7351C52.9522 17.7162 53.7023 16.855 54.6786 16.1506C55.6549 15.4466 56.8222 14.912 58.1805 14.5472C59.5388 14.1827 61.0519 14 62.7219 14C64.2776 14 65.7566 14.1511 67.1575 14.4531C68.558 14.7548 69.774 15.2449 70.8074 15.924C71.8398 16.6031 72.6535 17.4773 73.2481 18.5461C73.8421 19.6156 74.097 20.9041 74.0118 22.4134H68.197C68.2534 21.0804 67.794 20.0621 66.8177 19.3574C65.8414 18.6537 64.405 18.3009 62.5096 18.3009C61.9434 18.3009 61.3636 18.3517 60.7696 18.4521C60.175 18.5527 59.6301 18.7291 59.1355 18.98C58.6403 19.2318 58.2292 19.5591 57.9043 19.9611C57.5788 20.3638 57.4165 20.8665 57.4165 21.4702C57.4165 21.923 57.5081 22.3067 57.692 22.6208C57.8759 22.9357 58.2018 23.2311 58.6687 23.5078C59.1355 23.7846 59.7717 24.0547 60.5786 24.3185C61.3849 24.5827 62.3825 24.9036 63.5707 25.2807C65.0703 25.7335 66.3999 26.2179 67.5604 26.7333C68.7203 27.2489 69.6891 27.8274 70.4677 28.4686C71.2459 29.1101 71.8327 29.8331 72.2292 30.6381C72.6251 31.4435 72.8235 32.3864 72.8235 33.4676C72.8235 34.9015 72.5193 36.153 71.9111 37.2216C71.3023 38.291 70.4677 39.1835 69.4069 39.9001C68.3457 40.6171 67.079 41.1583 65.6082 41.5225C64.1366 41.887 62.5373 42.0694 60.8122 42.0694Z" fill="white"/>
<path d="M86.5758 42.0694C84.8214 42.0694 83.173 41.8933 81.6315 41.5414C80.0886 41.1892 78.7587 40.649 77.6415 39.9191C76.5232 39.1898 75.6605 38.2658 75.0524 37.1459C74.4435 36.0274 74.1822 34.6881 74.2671 33.128H80.1667C80.1099 33.9835 80.2374 34.7005 80.5487 35.2783C80.8597 35.8573 81.3131 36.3288 81.907 36.6933C82.5013 37.0581 83.2082 37.3159 84.0293 37.4671C84.8498 37.6176 85.7551 37.6933 86.7456 37.6933C87.5095 37.6933 88.238 37.6308 88.9314 37.5046C89.6247 37.379 90.24 37.1714 90.7778 36.882C91.3153 36.593 91.7467 36.2285 92.0726 35.7879C92.3974 35.3483 92.5604 34.8134 92.5604 34.1845C92.5604 33.707 92.461 33.2921 92.2632 32.9393C92.0648 32.5874 91.7115 32.2479 91.2024 31.9209C90.693 31.5943 90.0138 31.2671 89.165 30.9398C88.3161 30.6132 87.255 30.2361 85.9819 29.8079C84.6236 29.3806 83.4137 28.9407 82.3526 28.4875C81.2918 28.035 80.3929 27.5197 79.6576 26.9406C78.9214 26.3625 78.3629 25.6897 77.9809 24.9225C77.5989 24.1554 77.4082 23.2437 77.4082 22.1872C77.4082 20.9041 77.6692 19.7535 78.1935 18.7351C78.7162 17.7162 79.4666 16.855 80.4429 16.1506C81.4189 15.4466 82.5862 14.912 83.9445 14.5472C85.3024 14.1827 86.8159 14 88.4858 14C90.0416 14 91.5205 14.1511 92.9214 14.4531C94.322 14.7548 95.5379 15.2449 96.5714 15.924C97.6041 16.6031 98.4175 17.4773 99.0121 18.5461C99.606 19.6156 99.8609 20.9041 99.7757 22.4134H93.9609C94.0174 21.0804 93.558 20.0621 92.5817 19.3574C91.6054 18.6537 90.169 18.3009 88.2735 18.3009C87.7073 18.3009 87.1275 18.3517 86.5336 18.4521C85.9393 18.5527 85.394 18.7291 84.8995 18.98C84.4042 19.2318 83.9931 19.5591 83.6683 19.9611C83.3427 20.3638 83.1805 20.8665 83.1805 21.4702C83.1805 21.923 83.2721 22.3067 83.4563 22.6208C83.6399 22.9357 83.9658 23.2311 84.4326 23.5078C84.8995 23.7846 85.536 24.0547 86.3426 24.3185C87.1489 24.5827 88.1464 24.9036 89.3347 25.2807C90.8343 25.7335 92.1638 26.2179 93.3244 26.7333C94.4842 27.2489 95.4531 27.8274 96.2316 28.4686C97.0098 29.1101 97.5967 29.8331 97.9932 30.6381C98.3891 31.4435 98.5875 32.3864 98.5875 33.4676C98.5875 34.9015 98.2832 36.153 97.6751 37.2216C97.0663 38.291 96.2316 39.1835 95.1708 39.9001C94.1097 40.6171 92.843 41.1583 91.3721 41.5225C89.9002 41.887 88.3013 42.0694 86.5758 42.0694Z" fill="white"/>
</g>
<defs>
<clipPath id="clip0">
<rect width="78.7917" height="28.0694" fill="white" transform="translate(21 14)"/>
</clipPath>
</defs>
</svg>
